<svg xmlns="http://www.w3.org/2000/svg" viewBox="0 0 100 100" width="100" height="100">
  <defs>
    <linearGradient id="uk-bg" x1="0%" y1="0%" x2="100%" y2="100%">
      <stop offset="0%" stop-color="#0A192F"/>
      <stop offset="55%" stop-color="#112240"/>
      <stop offset="100%" stop-color="#1D2D50"/>
    </linearGradient>
    <radialGradient id="uk-galaxy" cx="50%" cy="45%" r="65%">
      <stop offset="0%" stop-color="rgba(100,255,218,0.55)"/>
      <stop offset="45%" stop-color="rgba(139,69,255,0.25)"/>
      <stop offset="100%" stop-color="rgba(139,69,255,0)"/>
    </radialGradient>
    <linearGradient id="uk-u" x1="0%" y1="0%" x2="100%" y2="100%">
      <stop offset="0%" stop-color="#64FFDA"/>
      <stop offset="100%" stop-color="#8B45FF"/>
    </linearGradient>
    <clipPath id="uk-clip">
      <rect x="4" y="4" width="92" height="92" rx="22"/>
    </clipPath>
  </defs>

  <rect x="4" y="4" width="92" height="92" rx="22" fill="url(#uk-bg)"/>
  <rect x="4" y="4" width="92" height="92" rx="22" fill="none" stroke="rgba(100,255,218,0.35)" stroke-width="1.5"/>

  <g clip-path="url(#uk-clip)">
    <circle cx="50" cy="46" r="42" fill="url(#uk-galaxy)"/>
    <ellipse cx="50" cy="50" rx="38" ry="14" fill="none" stroke="rgba(100,255,218,0.25)" stroke-width="1" transform="rotate(-18 50 50)"/>
    <ellipse cx="50" cy="50" rx="30" ry="10" fill="none" stroke="rgba(139,69,255,0.3)" stroke-width="1" transform="rotate(18 50 50)"/>
    <circle cx="16" cy="20" r="1.2" fill="#CCD6F6" opacity="0.8"/>
    <circle cx="84" cy="18" r="1" fill="#64FFDA" opacity="0.9"/>
    <circle cx="88" cy="70" r="1.3" fill="#CCD6F6" opacity="0.7"/>
    <circle cx="14" cy="78" r="1" fill="#8B45FF" opacity="0.9"/>
    <circle cx="22" cy="60" r="0.8" fill="#64FFDA" opacity="0.7"/>
    <circle cx="78" cy="34" r="0.8" fill="#CCD6F6" opacity="0.6"/>
    <text x="18" y="34" font-size="9" fill="rgba(100,255,218,0.55)" font-family="Georgia, serif">&#8721;</text>
    <text x="72" y="26" font-size="8" fill="rgba(139,69,255,0.6)" font-family="Georgia, serif">&#960;</text>
    <text x="76" y="80" font-size="9" fill="rgba(100,255,218,0.5)" font-family="Georgia, serif">&#8734;</text>
    <text x="16" y="70" font-size="8" fill="rgba(139,69,255,0.55)" font-family="Georgia, serif">&#8730;</text>
    <circle cx="80" cy="24" r="2" fill="#64FFDA"/>
    <path d="M80 24 L68 32" stroke="#64FFDA" stroke-width="1" stroke-linecap="round" opacity="0.5"/>
  </g>

  <text x="50" y="66" text-anchor="middle" font-family="'Space Grotesk', Arial, sans-serif" font-size="46" font-weight="800" fill="url(#uk-u)">U</text>
</svg>
